<?xml version="1.0" standalone="no"?>
<!DOCTYPE svg PUBLIC "-//W3C//DTD SVG 20010904//EN"
 "http://www.w3.org/TR/2001/REC-SVG-20010904/DTD/svg10.dtd">
<svg version="1.0" xmlns="http://www.w3.org/2000/svg"
 width="482.000000pt" height="517.000000pt" viewBox="0 0 482.000000 517.000000"
 preserveAspectRatio="xMidYMid meet">

<g transform="translate(0.000000,517.000000) scale(0.100000,-0.100000)"
fill="#000000" stroke="none">
<path d="M1940 5149 c-601 -58 -1032 -231 -1335 -534 -381 -379 -568 -1007
-591 -1975 -15 -613 92 -1123 333 -1589 35 -68 71 -135 80 -150 261 -426 573
-708 912 -821 124 -42 415 -83 491 -71 30 6 102 15 160 21 301 34 662 135
1185 332 679 257 1119 535 1326 840 21 31 44 60 50 64 36 22 230 534 246 649
3 25 10 45 14 45 15 0 10 408 -5 532 -8 62 -17 145 -21 183 -4 39 -18 131 -32
205 -13 74 -26 153 -28 175 -2 22 -13 67 -24 100 -10 33 -37 116 -59 185 -59
186 -103 313 -113 330 -5 8 -19 35 -31 60 -148 304 -303 524 -514 732 -344
339 -806 561 -1369 657 -33 6 -141 18 -240 26 -99 9 -193 17 -210 19 -16 3
-118 -4 -225 -15z"/>
</g>
</svg>
